<?xml version="1.0" encoding="iso-8859-1"?>
<!-- Generator: Adobe Illustrator 19.1.0, SVG Export Plug-In . SVG Version: 6.00 Build 0)  -->
<svg version="1.1" id="Capa_1" xmlns="http://www.w3.org/2000/svg" xmlns:xlink="http://www.w3.org/1999/xlink" x="0px" y="0px"
	 viewBox="0 0 296 296" style="enable-background:new 0 0 296 296;" xml:space="preserve">
<g>
	<path style="fill:#030104;" d="M163.969,112.967c-1.965,0-3.723,0.773-5.088,2.235c-1.412,1.48-2.213,3.556-2.213,5.712
		c0,2.164,0.795,4.219,2.182,5.638c1.42,1.522,3.18,2.31,5.119,2.31c1.807,0,3.557-0.809,4.928-2.276
		c1.389-1.459,2.211-3.572,2.211-5.671c0-2.121-0.807-4.203-2.213-5.713C167.551,113.76,165.801,112.967,163.969,112.967z"/>
	<path style="fill:#030104;" d="M96.547,116.041c0-1.236-0.951-2.041-2.164-2.041H91v4h3.383
		C95.576,118,96.547,117.211,96.547,116.041z"/>
	<path style="fill:#030104;" d="M126.684,112.967c-1.963,0-3.723,0.773-5.088,2.235c-1.41,1.48-2.211,3.556-2.211,5.712
		c0,2.164,0.795,4.219,2.18,5.638c1.422,1.522,3.182,2.31,5.119,2.31c1.809,0,3.559-0.809,4.928-2.276
		c1.391-1.459,2.211-3.572,2.211-5.671c0-2.121-0.807-4.203-2.213-5.713C130.266,113.76,128.516,112.967,126.684,112.967z"/>
	<path style="fill:#030104;" d="M247,28c0-15.464-12.536-28-28-28H77C61.536,0,49,12.536,49,28v240c0,15.464,12.536,28,28,28h142
		c15.464,0,28-12.536,28-28V28z M148.333,25.177l67.1,50.822h-134.2L148.333,25.177z M203.749,125.479
		c-0.72,0.983-1.851,1.594-3.061,1.731c-0.173,0.02-0.304,0.029-0.475,0.029c-1.473,0-2.95-0.637-3.765-1.746L194,122.459v10.788
		c0,2.329-1.668,4.224-4.02,4.224c-2.328,0-3.98-1.895-3.98-4.224v-23.858c0-2.329,2.004-4.39,4.332-4.39h0.121
		c1.375,0,2.695,0.76,3.443,1.883l6.383,8.912l6.424-8.952c0.826-1.123,2.076-1.843,3.443-1.843c0.021,0,0.084,0,0.105,0
		c2.314,0,3.748,2.138,3.748,4.39v23.858c0,2.289-1.709,4.224-4.02,4.224c-2.33,0-3.98-1.895-3.98-4.224v-10.823L203.749,125.479z
		 M179.717,120.914c0,4.353-1.646,8.475-4.637,11.611c-2.797,3.083-6.965,4.945-11.111,4.945c-4.266,0-8.408-1.807-11.365-4.957
		c-2.926-3.069-4.545-7.193-4.545-11.6c0-4.359,1.615-8.479,4.545-11.6c2.908-3.147,7.055-4.957,11.365-4.957
		c4.191,0,8.361,1.867,11.154,4.993C178.074,112.49,179.717,116.609,179.717,120.914z M142.434,120.914
		c0,4.353-1.648,8.475-4.639,11.611c-2.797,3.083-6.963,4.945-11.111,4.945c-4.264,0-8.406-1.807-11.363-4.957
		c-2.928-3.069-4.545-7.193-4.545-11.6c0-4.359,1.613-8.479,4.545-11.6c2.908-3.147,7.053-4.957,11.363-4.957
		c4.191,0,8.361,1.867,11.156,4.993C140.789,112.49,142.434,116.609,142.434,120.914z M83,109.389c0-2.368,1.775-4.39,4.144-4.39
		h7.238c5.873,0,10.652,4.88,10.652,10.776c0,2.421-0.84,4.829-2.353,6.708c0.096,0.128,0.189,0.259,0.279,0.393
		c1.086,1.574,1.67,3.477,1.67,5.476c-0.014,0.411-0.01,0.78,0.012,1.113c0.66,0.491,1.166,1.173,1.451,1.983
		c0.377,1.092,0.299,2.248-0.217,3.269c-0.502,0.998-1.365,1.75-2.432,2.117c-0.057,0.02-0.111,0.037-0.17,0.051
		c-0.223,0.055-0.723,0.179-1.365,0.179c-0.713,0-1.711-0.134-2.693-0.764c-0.945-0.582-1.572-1.471-1.936-2.108
		c-0.023-0.04-0.017-0.084-0.037-0.125c-0.719-1.49-0.99-3.246-0.994-5.672c-0.031-0.501-0.023-0.672-0.066-0.74
		c-0.023-0.036-0.059-1.656-2.26-1.656H91v7.247c0,2.329-1.668,4.224-4.02,4.224c-2.33,0-3.98-1.895-3.98-4.224V109.389z
		 M94,204.419V165.94l-0.393,0.208c-0.986,0.64-2.288,0.978-3.55,0.978c-2.387,0-4.472-1.246-5.669-3.338
		c-0.943-1.434-1.241-3.23-0.848-4.941c0.41-1.787,1.553-3.331,3.12-4.234l10.372-6.154c0.191-0.135,0.378-0.221,0.512-0.272
		c0.033-0.018,0.068-0.041,0.101-0.058c0.102-0.075,0.229-0.171,0.38-0.246c0.217-0.108,0.453-0.205,0.696-0.229
		c0.031-0.008,0.067-0.071,0.104-0.08c0.172-0.063,0.356-0.217,0.551-0.242c0.412-0.109,0.785-0.33,0.994-0.33h0.938
		c0.213,0,0.422,0.255,0.621,0.319c0.35,0.035,0.623,0.347,0.822,0.435c0.338,0.068,0.641,0.198,0.902,0.39
		c0.266,0.09,0.514,0.236,0.723,0.432c0.092,0.056,0.18,0.117,0.262,0.186c0.07,0.049,0.137,0.096,0.197,0.142
		c0.35,0.229,0.566,0.494,0.682,0.642c0.094,0.097,0.227,0.243,0.363,0.449l0.166,0.165c0.15,0.15,0.277,0.325,0.373,0.516
		l0.084,0.171c0.047,0.093,0.086,0.19,0.117,0.288c0.014,0.028,0.023,0.059,0.037,0.092c0.086,0.159,0.193,0.391,0.258,0.691
		c0.004,0.014,0.006,0.027,0.01,0.041c0.104,0.207,0.162,0.431,0.188,0.663c0.031,0.109-0.116,0.249-0.096,0.414
		c0.119,0.261-0.015,0.547-0.015,0.84v50.545c0,3.688-2.807,6.688-6.543,6.688C96.707,211.106,94,208.169,94,204.419z
		 M124.059,248.489l-5.283,3.554l2.02,6.079c0.414,1.241-0.025,2.607-1.086,3.375c-0.525,0.381-1.143,0.571-1.76,0.571
		c-0.629,0-1.256-0.196-1.785-0.589l-5.414-4.007l-5.398,3.885c-1.059,0.763-2.488,0.754-3.537-0.023
		c-1.049-0.775-1.475-2.141-1.057-3.375l2.006-5.905l-5.279-3.568c-1.092-0.738-1.574-2.104-1.188-3.364
		c0.387-1.261,1.551-2.121,2.869-2.121h6.689l2.066-6.361c0.402-1.236,1.553-2.073,2.854-2.073c1.299,0,2.451,0.837,2.854,2.073
		l2.066,6.361h6.689c1.318,0,2.484,0.862,2.869,2.125C125.639,246.386,125.154,247.753,124.059,248.489z M161.559,242.489
		l-5.283,3.554l2.02,6.079c0.414,1.241-0.025,2.607-1.086,3.375c-0.525,0.381-1.143,0.571-1.76,0.571
		c-0.629,0-1.256-0.196-1.785-0.589l-5.414-4.007l-5.398,3.885c-1.059,0.764-2.488,0.754-3.537-0.023
		c-1.049-0.775-1.475-2.141-1.057-3.375l2.006-5.905l-5.279-3.568c-1.092-0.738-1.574-2.104-1.188-3.364
		c0.387-1.261,1.551-2.121,2.869-2.121h6.689l2.066-6.361c0.402-1.236,1.553-2.073,2.854-2.073c1.299,0,2.451,0.837,2.854,2.073
		l2.066,6.361h6.689c1.318,0,2.484,0.862,2.869,2.125C163.139,240.386,162.654,241.753,161.559,242.489z M158.586,198
		c3.75,0,6.687,2.745,6.687,6.543c0,3.75-2.938,6.457-6.687,6.457h-30.344c-1.975,0-3.855-0.789-5.031-2.199
		c-2.432-2.662-2.277-6.757,0.41-9.323l25.268-22.879c1.916-1.717,2.924-4.031,2.924-6.7c0-2.299-0.779-4.35-2.314-6.095
		c-1.674-1.866-4.051-2.901-6.682-2.901c-2.234,0-4.398,0.822-6.094,2.314l-2.623,2.37c-1.238,1.131-2.834,1.759-4.484,1.759
		c-1.869,0-3.686-0.814-4.982-2.233c-2.473-2.843-2.252-6.985,0.471-9.472l2.65-2.388c3.998-3.732,9.355-5.789,15.063-5.789
		c6.338,0,12.41,2.716,16.656,7.414c3.732,3.999,5.801,9.402,5.801,15.109c0,6.338-2.695,12.497-7.392,16.743L145.623,198
		L158.586,198L158.586,198z M199.18,248.485l-5.279,3.568l2.004,5.905c0.42,1.234-0.008,2.6-1.057,3.375
		c-1.047,0.777-2.477,0.785-3.537,0.023l-5.396-3.885l-5.416,4.007c-0.529,0.393-1.156,0.589-1.783,0.589
		c-0.619,0-1.236-0.19-1.762-0.571c-1.059-0.768-1.498-2.134-1.086-3.375l2.022-6.079l-5.283-3.554
		c-1.094-0.736-1.58-2.103-1.193-3.364c0.385-1.263,1.549-2.125,2.869-2.125h6.689l2.066-6.361c0.402-1.236,1.553-2.073,2.854-2.073
		c1.299,0,2.451,0.837,2.854,2.073l2.066,6.361h6.689c1.318,0,2.482,0.86,2.867,2.121
		C200.754,246.382,200.271,247.747,199.18,248.485z M208.791,171.501c4.35,4.261,6.773,10.066,6.773,16.297
		c0,6.195-2.418,12.025-6.809,16.415c-4.326,4.327-10.311,6.809-16.416,6.809c-6.051,0-12.002-2.482-16.33-6.809
		c-2.66-2.659-2.66-6.987,0-9.646c1.285-1.285,2.998-1.992,4.824-1.992c1.826,0,3.539,0.707,4.824,1.991
		c1.766,1.767,4.139,2.739,6.682,2.739c2.568,0,4.918-0.956,6.795-2.765c1.822-1.821,2.799-4.162,2.799-6.742
		c0-2.557-0.994-4.92-2.797-6.657c-2.156-2.236-4.809-2.781-6.689-2.847c-1.799,0.075-3.51-0.624-4.752-1.919
		c-0.209-0.15-0.389-0.337-0.527-0.556c-2.416-2.605-2.432-6.614,0.031-9.31l5.408-5.51h-9.047c-3.734,0-6.771-3.262-6.771-7.043
		c0-3.734,3.037-6.957,6.771-6.957h25.145c3.781,0,6.859,3.217,6.859,6.951c0,1.066-0.266,2.29-0.809,3.376
		c-0.023,0.044-0.047,0.087-0.072,0.129c-0.281,0.474-0.633,1.061-1.154,1.582l-8.871,9.153
		C206.217,169.144,207.6,170.252,208.791,171.501z"/>
</g>
<g>
</g>
<g>
</g>
<g>
</g>
<g>
</g>
<g>
</g>
<g>
</g>
<g>
</g>
<g>
</g>
<g>
</g>
<g>
</g>
<g>
</g>
<g>
</g>
<g>
</g>
<g>
</g>
<g>
</g>
</svg>
